<mxfile host="www.draw.io" modified="2019-12-04T18:28:23.113Z" agent="Mozilla/5.0 (Windows NT 10.0; Win64; x64) AppleWebKit/537.36 (KHTML, like Gecko) Chrome/78.0.3904.97 Safari/537.36" etag="g8syDoTc6Q00qU2yKWdb" version="12.3.6" type="github" pages="1">
  <diagram id="kcomba_UFsj__auz3YVF" name="Page-1">
    <mxGraphModel dx="1824" dy="1021" grid="1" gridSize="10" guides="1" tooltips="1" connect="1" arrows="1" fold="1" page="1" pageScale="1" pageWidth="1169" pageHeight="827" math="0" shadow="0">
      <root>
        <mxCell id="0"/>
        <mxCell id="1" parent="0"/>
        <mxCell id="pwMXchlTZJM473vGIRh--1" value="TickerAgent" style="html=1;" vertex="1" parent="1">
          <mxGeometry x="50" y="50" width="110" height="50" as="geometry"/>
        </mxCell>
        <mxCell id="pwMXchlTZJM473vGIRh--6" value="CustomerAgent" style="html=1;" vertex="1" parent="1">
          <mxGeometry x="310" y="50" width="110" height="50" as="geometry"/>
        </mxCell>
        <mxCell id="pwMXchlTZJM473vGIRh--7" value="SupplierAgent" style="html=1;" vertex="1" parent="1">
          <mxGeometry x="940" y="50" width="110" height="50" as="geometry"/>
        </mxCell>
        <mxCell id="pwMXchlTZJM473vGIRh--8" value="ManufactererAgent" style="html=1;" vertex="1" parent="1">
          <mxGeometry x="620" y="50" width="110" height="50" as="geometry"/>
        </mxCell>
        <mxCell id="pwMXchlTZJM473vGIRh--12" value="" style="endArrow=none;dashed=1;html=1;entryX=0.5;entryY=1;entryDx=0;entryDy=0;" edge="1" parent="1" source="pwMXchlTZJM473vGIRh--19" target="pwMXchlTZJM473vGIRh--1">
          <mxGeometry width="50" height="50" relative="1" as="geometry">
            <mxPoint x="105" y="680" as="sourcePoint"/>
            <mxPoint x="105" y="120" as="targetPoint"/>
          </mxGeometry>
        </mxCell>
        <mxCell id="pwMXchlTZJM473vGIRh--15" value="" style="endArrow=none;dashed=1;html=1;entryX=0.5;entryY=1;entryDx=0;entryDy=0;" edge="1" parent="1" target="pwMXchlTZJM473vGIRh--6">
          <mxGeometry width="50" height="50" relative="1" as="geometry">
            <mxPoint x="365" y="930" as="sourcePoint"/>
            <mxPoint x="360" y="100" as="targetPoint"/>
          </mxGeometry>
        </mxCell>
        <mxCell id="pwMXchlTZJM473vGIRh--16" value="" style="endArrow=none;dashed=1;html=1;entryX=0.5;entryY=1;entryDx=0;entryDy=0;fontStyle=1" edge="1" parent="1" source="pwMXchlTZJM473vGIRh--37">
          <mxGeometry width="50" height="50" relative="1" as="geometry">
            <mxPoint x="674.5" y="680" as="sourcePoint"/>
            <mxPoint x="674.5" y="100" as="targetPoint"/>
          </mxGeometry>
        </mxCell>
        <mxCell id="pwMXchlTZJM473vGIRh--17" value="" style="endArrow=none;dashed=1;html=1;entryX=0.5;entryY=1;entryDx=0;entryDy=0;" edge="1" parent="1" source="pwMXchlTZJM473vGIRh--46" target="pwMXchlTZJM473vGIRh--7">
          <mxGeometry width="50" height="50" relative="1" as="geometry">
            <mxPoint x="995" y="680" as="sourcePoint"/>
            <mxPoint x="135" y="130" as="targetPoint"/>
          </mxGeometry>
        </mxCell>
        <mxCell id="pwMXchlTZJM473vGIRh--18" value="" style="endArrow=classic;html=1;exitX=1;exitY=0.5;exitDx=0;exitDy=0;" edge="1" parent="1" source="pwMXchlTZJM473vGIRh--19">
          <mxGeometry width="50" height="50" relative="1" as="geometry">
            <mxPoint x="106" y="150" as="sourcePoint"/>
            <mxPoint x="360" y="145" as="targetPoint"/>
          </mxGeometry>
        </mxCell>
        <mxCell id="pwMXchlTZJM473vGIRh--19" value="" style="rounded=0;whiteSpace=wrap;html=1;" vertex="1" parent="1">
          <mxGeometry x="100" y="130" width="10" height="30" as="geometry"/>
        </mxCell>
        <mxCell id="pwMXchlTZJM473vGIRh--20" value="" style="endArrow=none;dashed=1;html=1;entryX=0.5;entryY=1;entryDx=0;entryDy=0;" edge="1" parent="1" target="pwMXchlTZJM473vGIRh--19">
          <mxGeometry width="50" height="50" relative="1" as="geometry">
            <mxPoint x="105" y="940" as="sourcePoint"/>
            <mxPoint x="105" y="100" as="targetPoint"/>
          </mxGeometry>
        </mxCell>
        <mxCell id="pwMXchlTZJM473vGIRh--23" value="Inform (new day)" style="text;html=1;align=center;verticalAlign=middle;resizable=0;points=[];;autosize=1;" vertex="1" parent="1">
          <mxGeometry x="175" y="120" width="110" height="20" as="geometry"/>
        </mxCell>
        <mxCell id="pwMXchlTZJM473vGIRh--26" value="" style="rounded=0;whiteSpace=wrap;html=1;" vertex="1" parent="1">
          <mxGeometry x="100" y="170" width="10" height="30" as="geometry"/>
        </mxCell>
        <mxCell id="pwMXchlTZJM473vGIRh--27" value="" style="endArrow=classic;html=1;exitX=1;exitY=0.5;exitDx=0;exitDy=0;" edge="1" source="pwMXchlTZJM473vGIRh--26" parent="1">
          <mxGeometry width="50" height="50" relative="1" as="geometry">
            <mxPoint x="106" y="190" as="sourcePoint"/>
            <mxPoint x="670" y="185" as="targetPoint"/>
          </mxGeometry>
        </mxCell>
        <mxCell id="pwMXchlTZJM473vGIRh--28" value="Inform (new day)" style="text;html=1;align=center;verticalAlign=middle;resizable=0;points=[];;autosize=1;" vertex="1" parent="1">
          <mxGeometry x="365" y="160" width="110" height="20" as="geometry"/>
        </mxCell>
        <mxCell id="pwMXchlTZJM473vGIRh--29" value="" style="rounded=0;whiteSpace=wrap;html=1;" vertex="1" parent="1">
          <mxGeometry x="100" y="212" width="10" height="30" as="geometry"/>
        </mxCell>
        <mxCell id="pwMXchlTZJM473vGIRh--30" value="" style="endArrow=classic;html=1;exitX=1;exitY=0.5;exitDx=0;exitDy=0;" edge="1" parent="1" source="pwMXchlTZJM473vGIRh--29">
          <mxGeometry width="50" height="50" relative="1" as="geometry">
            <mxPoint x="106" y="232" as="sourcePoint"/>
            <mxPoint x="990" y="227" as="targetPoint"/>
          </mxGeometry>
        </mxCell>
        <mxCell id="pwMXchlTZJM473vGIRh--31" value="Inform (new day)" style="text;html=1;align=center;verticalAlign=middle;resizable=0;points=[];;autosize=1;" vertex="1" parent="1">
          <mxGeometry x="500" y="200" width="110" height="20" as="geometry"/>
        </mxCell>
        <mxCell id="pwMXchlTZJM473vGIRh--32" value="" style="rounded=0;whiteSpace=wrap;html=1;" vertex="1" parent="1">
          <mxGeometry x="360" y="255" width="10" height="30" as="geometry"/>
        </mxCell>
        <mxCell id="pwMXchlTZJM473vGIRh--33" value="" style="endArrow=classic;html=1;exitX=1;exitY=0.5;exitDx=0;exitDy=0;entryX=0.364;entryY=1.25;entryDx=0;entryDy=0;entryPerimeter=0;" edge="1" parent="1" source="pwMXchlTZJM473vGIRh--32">
          <mxGeometry width="50" height="50" relative="1" as="geometry">
            <mxPoint x="366" y="275" as="sourcePoint"/>
            <mxPoint x="673.1999999999998" y="270" as="targetPoint"/>
          </mxGeometry>
        </mxCell>
        <mxCell id="pwMXchlTZJM473vGIRh--35" value="Request (order)" style="text;html=1;align=center;verticalAlign=middle;resizable=0;points=[];;autosize=1;" vertex="1" parent="1">
          <mxGeometry x="475" y="245" width="100" height="20" as="geometry"/>
        </mxCell>
        <mxCell id="pwMXchlTZJM473vGIRh--38" value="" style="endArrow=classic;html=1;exitX=1;exitY=0.5;exitDx=0;exitDy=0;" edge="1" parent="1">
          <mxGeometry width="50" height="50" relative="1" as="geometry">
            <mxPoint x="680" y="310" as="sourcePoint"/>
            <mxPoint x="370" y="310" as="targetPoint"/>
          </mxGeometry>
        </mxCell>
        <mxCell id="pwMXchlTZJM473vGIRh--39" value="Inform (if not enough profit from phone so dont make)" style="text;html=1;align=center;verticalAlign=middle;resizable=0;points=[];;autosize=1;" vertex="1" parent="1">
          <mxGeometry x="370" y="285" width="300" height="20" as="geometry"/>
        </mxCell>
        <mxCell id="pwMXchlTZJM473vGIRh--37" value="" style="rounded=0;whiteSpace=wrap;html=1;" vertex="1" parent="1">
          <mxGeometry x="670" y="295" width="10" height="30" as="geometry"/>
        </mxCell>
        <mxCell id="pwMXchlTZJM473vGIRh--40" value="" style="endArrow=none;dashed=1;html=1;entryX=0.5;entryY=1;entryDx=0;entryDy=0;fontStyle=1" edge="1" parent="1" source="pwMXchlTZJM473vGIRh--68" target="pwMXchlTZJM473vGIRh--37">
          <mxGeometry width="50" height="50" relative="1" as="geometry">
            <mxPoint x="674.5" y="736" as="sourcePoint"/>
            <mxPoint x="674.5" y="156" as="targetPoint"/>
          </mxGeometry>
        </mxCell>
        <mxCell id="pwMXchlTZJM473vGIRh--43" value="" style="rounded=0;whiteSpace=wrap;html=1;" vertex="1" parent="1">
          <mxGeometry x="670" y="384" width="10" height="30" as="geometry"/>
        </mxCell>
        <mxCell id="pwMXchlTZJM473vGIRh--44" value="" style="endArrow=classic;html=1;exitX=1;exitY=0.5;exitDx=0;exitDy=0;" edge="1" parent="1" source="pwMXchlTZJM473vGIRh--43">
          <mxGeometry width="50" height="50" relative="1" as="geometry">
            <mxPoint x="676" y="404" as="sourcePoint"/>
            <mxPoint x="990" y="399" as="targetPoint"/>
          </mxGeometry>
        </mxCell>
        <mxCell id="pwMXchlTZJM473vGIRh--45" value="Request (parts order)" style="text;html=1;align=center;verticalAlign=middle;resizable=0;points=[];;autosize=1;" vertex="1" parent="1">
          <mxGeometry x="765" y="376" width="130" height="20" as="geometry"/>
        </mxCell>
        <mxCell id="pwMXchlTZJM473vGIRh--46" value="" style="rounded=0;whiteSpace=wrap;html=1;" vertex="1" parent="1">
          <mxGeometry x="990" y="660" width="10" height="30" as="geometry"/>
        </mxCell>
        <mxCell id="pwMXchlTZJM473vGIRh--47" value="" style="endArrow=none;dashed=1;html=1;entryX=0.5;entryY=1;entryDx=0;entryDy=0;" edge="1" parent="1" target="pwMXchlTZJM473vGIRh--46">
          <mxGeometry width="50" height="50" relative="1" as="geometry">
            <mxPoint x="995" y="920" as="sourcePoint"/>
            <mxPoint x="995" y="100" as="targetPoint"/>
          </mxGeometry>
        </mxCell>
        <mxCell id="pwMXchlTZJM473vGIRh--48" value="" style="endArrow=classic;html=1;exitX=0;exitY=0.5;exitDx=0;exitDy=0;" edge="1" parent="1" source="pwMXchlTZJM473vGIRh--46">
          <mxGeometry width="50" height="50" relative="1" as="geometry">
            <mxPoint x="690" y="643" as="sourcePoint"/>
            <mxPoint x="680" y="675" as="targetPoint"/>
          </mxGeometry>
        </mxCell>
        <mxCell id="pwMXchlTZJM473vGIRh--49" value="Request (send parts 1 or 4 days depending on supplier)" style="text;html=1;align=center;verticalAlign=middle;resizable=0;points=[];;autosize=1;" vertex="1" parent="1">
          <mxGeometry x="675" y="650" width="310" height="20" as="geometry"/>
        </mxCell>
        <mxCell id="pwMXchlTZJM473vGIRh--50" value="" style="rounded=0;whiteSpace=wrap;html=1;" vertex="1" parent="1">
          <mxGeometry x="670" y="710" width="10" height="30" as="geometry"/>
        </mxCell>
        <mxCell id="pwMXchlTZJM473vGIRh--51" value="" style="endArrow=none;dashed=1;html=1;entryX=0.5;entryY=1;entryDx=0;entryDy=0;fontStyle=1" edge="1" parent="1" target="pwMXchlTZJM473vGIRh--50">
          <mxGeometry width="50" height="50" relative="1" as="geometry">
            <mxPoint x="675" y="930" as="sourcePoint"/>
            <mxPoint x="675" y="310" as="targetPoint"/>
          </mxGeometry>
        </mxCell>
        <mxCell id="pwMXchlTZJM473vGIRh--52" value="" style="endArrow=classic;html=1;exitX=0;exitY=0.5;exitDx=0;exitDy=0;" edge="1" parent="1">
          <mxGeometry width="50" height="50" relative="1" as="geometry">
            <mxPoint x="669" y="724" as="sourcePoint"/>
            <mxPoint x="370" y="724" as="targetPoint"/>
          </mxGeometry>
        </mxCell>
        <mxCell id="pwMXchlTZJM473vGIRh--53" value="Request (send phone)" style="text;html=1;align=center;verticalAlign=middle;resizable=0;points=[];;autosize=1;" vertex="1" parent="1">
          <mxGeometry x="455" y="700" width="130" height="20" as="geometry"/>
        </mxCell>
        <mxCell id="pwMXchlTZJM473vGIRh--58" value="" style="rounded=0;whiteSpace=wrap;html=1;" vertex="1" parent="1">
          <mxGeometry x="990" y="476" width="10" height="30" as="geometry"/>
        </mxCell>
        <mxCell id="pwMXchlTZJM473vGIRh--59" value="" style="endArrow=classic;html=1;exitX=0;exitY=0.5;exitDx=0;exitDy=0;" edge="1" parent="1" source="pwMXchlTZJM473vGIRh--58">
          <mxGeometry width="50" height="50" relative="1" as="geometry">
            <mxPoint x="690" y="403" as="sourcePoint"/>
            <mxPoint x="110" y="491" as="targetPoint"/>
          </mxGeometry>
        </mxCell>
        <mxCell id="pwMXchlTZJM473vGIRh--60" value="Inform (end day)" style="text;html=1;align=center;verticalAlign=middle;resizable=0;points=[];;autosize=1;" vertex="1" parent="1">
          <mxGeometry x="435" y="414" width="100" height="20" as="geometry"/>
        </mxCell>
        <mxCell id="pwMXchlTZJM473vGIRh--69" value="" style="endArrow=classic;html=1;exitX=0;exitY=0.5;exitDx=0;exitDy=0;" edge="1" parent="1" source="pwMXchlTZJM473vGIRh--68">
          <mxGeometry width="50" height="50" relative="1" as="geometry">
            <mxPoint x="370" y="433" as="sourcePoint"/>
            <mxPoint x="110" y="440" as="targetPoint"/>
          </mxGeometry>
        </mxCell>
        <mxCell id="pwMXchlTZJM473vGIRh--70" value="Inform (end day)" style="text;html=1;align=center;verticalAlign=middle;resizable=0;points=[];;autosize=1;" vertex="1" parent="1">
          <mxGeometry x="435" y="466" width="100" height="20" as="geometry"/>
        </mxCell>
        <mxCell id="pwMXchlTZJM473vGIRh--71" value="" style="endArrow=classic;html=1;" edge="1" parent="1">
          <mxGeometry width="50" height="50" relative="1" as="geometry">
            <mxPoint x="360" y="350" as="sourcePoint"/>
            <mxPoint x="110" y="350" as="targetPoint"/>
          </mxGeometry>
        </mxCell>
        <mxCell id="pwMXchlTZJM473vGIRh--72" value="Inform (end day)" style="text;html=1;align=center;verticalAlign=middle;resizable=0;points=[];;autosize=1;" vertex="1" parent="1">
          <mxGeometry x="190" y="325" width="100" height="20" as="geometry"/>
        </mxCell>
        <mxCell id="pwMXchlTZJM473vGIRh--73" value="" style="rounded=0;whiteSpace=wrap;html=1;" vertex="1" parent="1">
          <mxGeometry x="360" y="335" width="10" height="30" as="geometry"/>
        </mxCell>
        <mxCell id="pwMXchlTZJM473vGIRh--68" value="" style="rounded=0;whiteSpace=wrap;html=1;" vertex="1" parent="1">
          <mxGeometry x="670" y="426" width="10" height="30" as="geometry"/>
        </mxCell>
        <mxCell id="pwMXchlTZJM473vGIRh--74" value="" style="endArrow=none;dashed=1;html=1;entryX=0.5;entryY=1;entryDx=0;entryDy=0;fontStyle=1" edge="1" parent="1" source="pwMXchlTZJM473vGIRh--50" target="pwMXchlTZJM473vGIRh--68">
          <mxGeometry width="50" height="50" relative="1" as="geometry">
            <mxPoint x="675" y="646" as="sourcePoint"/>
            <mxPoint x="675" y="325" as="targetPoint"/>
          </mxGeometry>
        </mxCell>
        <mxCell id="pwMXchlTZJM473vGIRh--89" value="" style="endArrow=classic;html=1;exitX=1;exitY=0.5;exitDx=0;exitDy=0;" edge="1" parent="1" source="pwMXchlTZJM473vGIRh--90">
          <mxGeometry width="50" height="50" relative="1" as="geometry">
            <mxPoint x="106" y="537" as="sourcePoint"/>
            <mxPoint x="360" y="532" as="targetPoint"/>
          </mxGeometry>
        </mxCell>
        <mxCell id="pwMXchlTZJM473vGIRh--90" value="" style="rounded=0;whiteSpace=wrap;html=1;" vertex="1" parent="1">
          <mxGeometry x="100" y="517" width="10" height="30" as="geometry"/>
        </mxCell>
        <mxCell id="pwMXchlTZJM473vGIRh--91" value="Inform (new day)" style="text;html=1;align=center;verticalAlign=middle;resizable=0;points=[];;autosize=1;" vertex="1" parent="1">
          <mxGeometry x="175" y="507" width="110" height="20" as="geometry"/>
        </mxCell>
        <mxCell id="pwMXchlTZJM473vGIRh--92" value="" style="rounded=0;whiteSpace=wrap;html=1;" vertex="1" parent="1">
          <mxGeometry x="100" y="557" width="10" height="30" as="geometry"/>
        </mxCell>
        <mxCell id="pwMXchlTZJM473vGIRh--93" value="" style="endArrow=classic;html=1;exitX=1;exitY=0.5;exitDx=0;exitDy=0;" edge="1" parent="1" source="pwMXchlTZJM473vGIRh--92">
          <mxGeometry width="50" height="50" relative="1" as="geometry">
            <mxPoint x="106" y="577" as="sourcePoint"/>
            <mxPoint x="670" y="572" as="targetPoint"/>
          </mxGeometry>
        </mxCell>
        <mxCell id="pwMXchlTZJM473vGIRh--94" value="Inform (new day)" style="text;html=1;align=center;verticalAlign=middle;resizable=0;points=[];;autosize=1;" vertex="1" parent="1">
          <mxGeometry x="365" y="547" width="110" height="20" as="geometry"/>
        </mxCell>
        <mxCell id="pwMXchlTZJM473vGIRh--95" value="" style="rounded=0;whiteSpace=wrap;html=1;" vertex="1" parent="1">
          <mxGeometry x="100" y="599" width="10" height="30" as="geometry"/>
        </mxCell>
        <mxCell id="pwMXchlTZJM473vGIRh--96" value="" style="endArrow=classic;html=1;exitX=1;exitY=0.5;exitDx=0;exitDy=0;" edge="1" parent="1" source="pwMXchlTZJM473vGIRh--95">
          <mxGeometry width="50" height="50" relative="1" as="geometry">
            <mxPoint x="106" y="619" as="sourcePoint"/>
            <mxPoint x="990" y="614" as="targetPoint"/>
          </mxGeometry>
        </mxCell>
        <mxCell id="pwMXchlTZJM473vGIRh--97" value="Inform (new day)" style="text;html=1;align=center;verticalAlign=middle;resizable=0;points=[];;autosize=1;" vertex="1" parent="1">
          <mxGeometry x="500" y="587" width="110" height="20" as="geometry"/>
        </mxCell>
        <mxCell id="pwMXchlTZJM473vGIRh--98" value="Then continue from the top again" style="text;html=1;align=center;verticalAlign=middle;resizable=0;points=[];;autosize=1;" vertex="1" parent="1">
          <mxGeometry x="430" y="750" width="190" height="20" as="geometry"/>
        </mxCell>
        <mxCell id="pwMXchlTZJM473vGIRh--100" value="ONCE 100 DAYS HAVE BEEN REACHED" style="text;html=1;align=center;verticalAlign=middle;resizable=0;points=[];;autosize=1;" vertex="1" parent="1">
          <mxGeometry x="400" y="780" width="240" height="20" as="geometry"/>
        </mxCell>
        <mxCell id="pwMXchlTZJM473vGIRh--111" value="" style="endArrow=classic;html=1;exitX=1;exitY=0.5;exitDx=0;exitDy=0;" edge="1" parent="1" source="pwMXchlTZJM473vGIRh--112">
          <mxGeometry width="50" height="50" relative="1" as="geometry">
            <mxPoint x="106" y="830" as="sourcePoint"/>
            <mxPoint x="360" y="825" as="targetPoint"/>
          </mxGeometry>
        </mxCell>
        <mxCell id="pwMXchlTZJM473vGIRh--112" value="" style="rounded=0;whiteSpace=wrap;html=1;" vertex="1" parent="1">
          <mxGeometry x="100" y="810" width="10" height="30" as="geometry"/>
        </mxCell>
        <mxCell id="pwMXchlTZJM473vGIRh--113" value="Inform (terminate)" style="text;html=1;align=center;verticalAlign=middle;resizable=0;points=[];;autosize=1;" vertex="1" parent="1">
          <mxGeometry x="175" y="800" width="110" height="20" as="geometry"/>
        </mxCell>
        <mxCell id="pwMXchlTZJM473vGIRh--114" value="" style="rounded=0;whiteSpace=wrap;html=1;" vertex="1" parent="1">
          <mxGeometry x="100" y="850" width="10" height="30" as="geometry"/>
        </mxCell>
        <mxCell id="pwMXchlTZJM473vGIRh--115" value="" style="endArrow=classic;html=1;exitX=1;exitY=0.5;exitDx=0;exitDy=0;" edge="1" parent="1" source="pwMXchlTZJM473vGIRh--114">
          <mxGeometry width="50" height="50" relative="1" as="geometry">
            <mxPoint x="106" y="870" as="sourcePoint"/>
            <mxPoint x="670" y="865" as="targetPoint"/>
          </mxGeometry>
        </mxCell>
        <mxCell id="pwMXchlTZJM473vGIRh--116" value="Inform (terminate)" style="text;html=1;align=center;verticalAlign=middle;resizable=0;points=[];;autosize=1;" vertex="1" parent="1">
          <mxGeometry x="365" y="840" width="110" height="20" as="geometry"/>
        </mxCell>
        <mxCell id="pwMXchlTZJM473vGIRh--117" value="" style="rounded=0;whiteSpace=wrap;html=1;" vertex="1" parent="1">
          <mxGeometry x="100" y="892" width="10" height="30" as="geometry"/>
        </mxCell>
        <mxCell id="pwMXchlTZJM473vGIRh--118" value="" style="endArrow=classic;html=1;exitX=1;exitY=0.5;exitDx=0;exitDy=0;" edge="1" parent="1" source="pwMXchlTZJM473vGIRh--117">
          <mxGeometry width="50" height="50" relative="1" as="geometry">
            <mxPoint x="106" y="912" as="sourcePoint"/>
            <mxPoint x="990" y="907" as="targetPoint"/>
          </mxGeometry>
        </mxCell>
        <mxCell id="pwMXchlTZJM473vGIRh--119" value="Inform (terminate)" style="text;html=1;align=center;verticalAlign=middle;resizable=0;points=[];;autosize=1;" vertex="1" parent="1">
          <mxGeometry x="500" y="880" width="110" height="20" as="geometry"/>
        </mxCell>
      </root>
    </mxGraphModel>
  </diagram>
</mxfile>